<svg width="1012" height="294" viewBox="0 0 1012 294" fill="none" xmlns="http://www.w3.org/2000/svg">
<g filter="url(#filter0_b_324_3)">
<rect width="1012" height="293.381" rx="39.557" fill="#313036" fill-opacity="0.3"/>
<rect width="1012" height="293.381" rx="39.557" fill="url(#paint0_linear_324_3)"/>
<rect x="3.29642" y="3.29642" width="1005.41" height="286.788" rx="36.2606" stroke="url(#paint1_linear_324_3)" stroke-width="6.59283"/>
</g>
<path d="M355.844 124.6C364.633 124.6 372.143 127.843 378.372 134.328C384.601 140.813 387.716 148.792 387.716 158.264C387.716 167.736 384.601 175.715 378.372 182.2C372.143 188.685 364.633 191.928 355.844 191.928C346.116 191.928 338.649 188.301 333.444 181.048V187.264C333.444 188.921 332.101 190.264 330.444 190.264H322.62C320.963 190.264 319.62 188.921 319.62 187.264V103.582C319.62 102.177 321.031 101.21 322.342 101.717L338.045 107.792C339.473 108.345 340.256 109.886 339.86 111.366L333.444 135.352C338.735 128.184 346.201 124.6 355.844 124.6ZM339.204 172.984C343.044 176.824 347.865 178.744 353.668 178.744C359.471 178.744 364.292 176.824 368.132 172.984C371.972 169.059 373.892 164.152 373.892 158.264C373.892 152.376 371.972 147.512 368.132 143.672C364.292 139.747 359.471 137.784 353.668 137.784C347.865 137.784 343.044 139.747 339.204 143.672C335.364 147.512 333.444 152.376 333.444 158.264C333.444 164.067 335.364 168.973 339.204 172.984Z" fill="white"/>
<path d="M450.933 135.352V129.264C450.933 127.607 452.276 126.264 453.933 126.264H461.757C463.414 126.264 464.757 127.607 464.757 129.264V187.264C464.757 188.921 463.414 190.264 461.757 190.264H453.933C452.276 190.264 450.933 188.921 450.933 187.264V181.048C445.728 188.301 438.261 191.928 428.533 191.928C419.744 191.928 412.234 188.685 406.005 182.2C399.776 175.715 396.661 167.736 396.661 158.264C396.661 148.792 399.776 140.813 406.005 134.328C412.234 127.843 419.744 124.6 428.533 124.6C438.261 124.6 445.728 128.184 450.933 135.352ZM416.245 172.984C420.085 176.824 424.906 178.744 430.709 178.744C436.512 178.744 441.333 176.824 445.173 172.984C449.013 169.059 450.933 164.152 450.933 158.264C450.933 152.376 449.013 147.512 445.173 143.672C441.333 139.747 436.512 137.784 430.709 137.784C424.906 137.784 420.085 139.747 416.245 143.672C412.405 147.512 410.485 152.376 410.485 158.264C410.485 164.067 412.405 168.973 416.245 172.984Z" fill="white"/>
<path d="M511.078 191.928C501.435 191.928 493.371 188.685 486.886 182.2C480.486 175.629 477.286 167.651 477.286 158.264C477.286 148.707 480.486 140.728 486.886 134.328C493.371 127.843 501.435 124.6 511.078 124.6C517.307 124.6 522.982 126.093 528.102 129.08C532.357 131.562 535.729 134.752 538.216 138.649C539.072 139.991 538.545 141.737 537.168 142.537L530.543 146.384C529.023 147.266 527.095 146.634 526.045 145.225C524.732 143.46 523.07 142.004 521.062 140.856C518.161 139.064 514.79 138.168 510.95 138.168C505.318 138.168 500.582 140.088 496.742 143.928C492.987 147.853 491.11 152.632 491.11 158.264C491.11 163.896 492.987 168.675 496.742 172.6C500.582 176.44 505.318 178.36 510.95 178.36C514.705 178.36 518.075 177.507 521.062 175.8C523.175 174.568 524.924 173.032 526.311 171.195C527.347 169.821 529.231 169.22 530.726 170.072L537.344 173.844C538.755 174.648 539.283 176.439 538.387 177.794C535.77 181.748 532.299 184.966 527.974 187.448C522.854 190.435 517.222 191.928 511.078 191.928Z" fill="white"/>
<path d="M583.056 158.264L609.201 188.611C609.76 189.259 609.299 190.264 608.444 190.264H591.283C590.425 190.264 589.608 189.897 589.039 189.255L563.694 160.696V187.264C563.694 188.921 562.351 190.264 560.694 190.264H552.87C551.213 190.264 549.87 188.921 549.87 187.264V103.664C549.87 102.007 551.213 100.664 552.87 100.664H560.694C562.351 100.664 563.694 102.007 563.694 103.664V154.552L587.63 127.285C588.2 126.636 589.021 126.264 589.885 126.264H610.625L583.056 158.264Z" fill="white"/>
<path d="M649.281 99C655.34 99 661.996 99.768 669.249 101.304V187.264C669.249 188.921 667.906 190.264 666.249 190.264H658.425C656.768 190.264 655.425 188.921 655.425 187.264V111.288C654.486 111.203 652.438 111.16 649.281 111.16C639.212 111.16 634.177 115.768 634.177 124.984V126.264H643.081C644.738 126.264 646.081 127.607 646.081 129.264V136.576C646.081 138.233 644.738 139.576 643.081 139.576H634.177V187.264C634.177 188.921 632.834 190.264 631.177 190.264H623.353C621.696 190.264 620.353 188.921 620.353 187.264V139.576H610.625V126.264H620.353V124.984C620.353 107.661 629.996 99 649.281 99Z" fill="white"/>
<path d="M739.389 182.2C732.904 188.685 724.925 191.928 715.453 191.928C705.981 191.928 698.002 188.685 691.517 182.2C684.946 175.629 681.661 167.651 681.661 158.264C681.661 148.877 684.946 140.899 691.517 134.328C698.002 127.843 705.981 124.6 715.453 124.6C724.925 124.6 732.904 127.843 739.389 134.328C745.96 140.899 749.245 148.877 749.245 158.264C749.245 167.651 745.96 175.629 739.389 182.2ZM695.485 158.264C695.485 164.067 697.405 168.888 701.245 172.728C705.085 176.568 709.821 178.488 715.453 178.488C721.085 178.488 725.821 176.568 729.661 172.728C733.501 168.888 735.421 164.067 735.421 158.264C735.421 152.461 733.501 147.64 729.661 143.8C725.821 139.96 721.085 138.04 715.453 138.04C709.821 138.04 705.085 139.96 701.245 143.8C697.405 147.64 695.485 152.461 695.485 158.264Z" fill="white"/>
<path d="M817.471 160.612C818.336 163.481 822.411 163.449 823.229 160.566L832.354 128.444C832.72 127.154 833.898 126.264 835.24 126.264H844.841C846.191 126.264 847.154 127.575 846.749 128.863L828.129 188.163C827.736 189.413 826.577 190.264 825.267 190.264H816.115C814.799 190.264 813.636 189.406 813.248 188.149L803.442 156.372C802.573 153.556 798.588 153.551 797.711 156.365L787.806 188.156C787.415 189.41 786.255 190.264 784.942 190.264H775.784C774.473 190.264 773.314 189.413 772.921 188.163L754.301 128.863C753.897 127.575 754.859 126.264 756.209 126.264H765.804C767.148 126.264 768.328 127.158 768.692 128.452L777.719 160.558C778.53 163.443 782.605 163.486 783.477 160.619L793.286 128.391C793.67 127.127 794.836 126.264 796.156 126.264H804.888C806.211 126.264 807.379 127.131 807.76 128.398L817.471 160.612Z" fill="white"/>
<rect x="201.818" y="113.37" width="12.3481" height="12.6035" rx="1.9685" transform="rotate(42.2735 201.818 113.37)" fill="white"/>
<rect x="201.443" y="87.1982" width="12.3481" height="12.6035" rx="1.9685" transform="rotate(42.2735 201.443 87.1982)" fill="white"/>
<rect x="188.4" y="101.243" width="12.3481" height="12.6035" rx="1.9685" transform="rotate(42.2735 188.4 101.243)" fill="white"/>
<path d="M251.459 189.547C251.162 190.293 250.442 190.783 249.639 190.787L237.653 190.842C236.267 190.848 235.308 189.458 235.807 188.165L250.295 150.586C250.587 149.83 251.312 149.329 252.123 149.326L265.843 149.263C266.635 149.259 267.179 150.058 266.886 150.794L251.459 189.547Z" fill="white"/>
<path d="M195.514 191.077C194.718 191.08 194.173 190.272 194.475 189.535L199.291 177.793C199.594 177.054 200.314 176.572 201.112 176.572L253.365 176.572C254.766 176.572 255.718 177.993 255.186 179.288L250.944 189.611C250.642 190.347 249.927 190.828 249.133 190.832L195.514 191.077Z" fill="white"/>
<path d="M188.38 150.837C188.688 150.108 189.403 149.635 190.194 149.635L203.535 149.635C204.339 149.635 204.88 150.457 204.561 151.195L187.833 189.958C187.522 190.68 186.812 191.147 186.026 191.147L173.029 191.147C172.229 191.147 171.688 190.331 171.999 189.594L188.38 150.837Z" fill="white"/>
<path d="M267.637 103.869C267.936 103.122 268.66 102.633 269.465 102.633L281.276 102.633C282.659 102.633 283.61 104.02 283.112 105.31L268.911 142.091C268.618 142.851 267.887 143.352 267.072 143.351L253.482 143.332C252.692 143.331 252.152 142.533 252.446 141.799L267.637 103.869Z" fill="white"/>
<path d="M273.544 102.6C275.063 102.6 276.009 104.247 275.244 105.56L269.438 115.52C269.085 116.125 268.438 116.497 267.737 116.497L214.032 116.497C213.238 116.497 212.698 115.694 212.997 114.959L217.524 103.827C217.826 103.085 218.547 102.6 219.348 102.6L273.544 102.6Z" fill="white"/>
<path d="M219.791 129.088C220.087 128.334 220.814 127.837 221.625 127.837L234.836 127.838C235.624 127.838 236.165 128.633 235.875 129.366L220.541 168.134C220.244 168.885 219.519 169.378 218.711 169.378L205.662 169.378C204.875 169.378 204.335 168.586 204.621 167.853L219.791 129.088Z" fill="white"/>
<defs>
<filter id="filter0_b_324_3" x="-13.1857" y="-13.1857" width="1038.37" height="319.752" filterUnits="userSpaceOnUse" color-interpolation-filters="sRGB">
<feFlood flood-opacity="0" result="BackgroundImageFix"/>
<feGaussianBlur in="BackgroundImageFix" stdDeviation="6.59283"/>
<feComposite in2="SourceAlpha" operator="in" result="effect1_backgroundBlur_324_3"/>
<feBlend mode="normal" in="SourceGraphic" in2="effect1_backgroundBlur_324_3" result="shape"/>
</filter>
<linearGradient id="paint0_linear_324_3" x1="49.8171" y1="16.2838" x2="118.803" y2="261.491" gradientUnits="userSpaceOnUse">
<stop stop-color="#B1B1B1" stop-opacity="0.32"/>
<stop offset="1" stop-color="#363567" stop-opacity="0.2"/>
</linearGradient>
<linearGradient id="paint1_linear_324_3" x1="-213.195" y1="-21.1364" x2="-189.204" y2="368.617" gradientUnits="userSpaceOnUse">
<stop stop-color="white" stop-opacity="0.2"/>
<stop offset="1" stop-color="white" stop-opacity="0"/>
</linearGradient>
</defs>
</svg>
